# xmcd
# 
# Track frame offsets:
#     150
#     16670
#     33763
#     49233
#     65123
#     79129
#     101236
#     115967
#     132940
#     149302
#     167852
#     182936
#     199792
#     213191
#     224241
#     240523
#     254859
#     268257
#     280074
#     290371
# 
# Disc length: 4088
# 
# Revision: 1
# Processed by: cddbd v1.5.2PL0 Copyright (c) Steve Scherf et al.
# Submitted via: BonkEnc v1.0.8
# 
DISCID=420ff614
DTITLE=dancehouse - Ballroom Nights 2 CD1
DYEAR=2008
DGENRE=Ballroom
TTITLE0=Forever We'll Be In Love (LW 28)
TTITLE1=Di Sole E D'Azzurro (LW 28)
TTITLE2=Stuck On You (LW 29)
TTITLE3=Never Let Me Go (LW 29)
TTITLE4=Funny, Familiar, Forgotten Feelings (LW 29)
TTITLE5=You're Still My Man (LW 29)
TTITLE6=I Still Believe (LW 29)
TTITLE7=I Saw A Light (LW 29)
TTITLE8=Truly (LW 29)
TTITLE9=Vanishing (LW 29)
TTITLE10=Salamanca (TA 32)
TTITLE11=Querida Conchita (TA 32)
TTITLE12=Tango Mascarada (TA 32)
TTITLE13=T.T.Tango (TA 32)
TTITLE14=Reflejo De Luna (TA 32)
TTITLE15=Love Scenes (WW 58)
TTITLE16=Summerlove (WW 58)
TTITLE17=Irma La Douce (WW 59)
TTITLE18=Easy Woman (WW 58)
TTITLE19=The Killing Moon (WW 58)
EXTD=YEAR: 2008
EXTT0=
EXTT1=
EXTT2=
EXTT3=
EXTT4=
EXTT5=
EXTT6=
EXTT7=
EXTT8=
EXTT9=
EXTT10=
EXTT11=
EXTT12=
EXTT13=
EXTT14=
EXTT15=
EXTT16=
EXTT17=
EXTT18=
EXTT19=
PLAYORDER=
